<svg xmlns="http://www.w3.org/2000/svg" width="168" height="192" viewBox="0 0 168 192">
    <path fill="#FFF" fill-rule="evenodd" d="M61 21c95.338-72.822 113.576 63.631 105 133-11.297 94.001-280.705-5.416-107-132l2-1zm36 113c4.421 0 8-10.516 8-23 0-13.477-3.579-24-8-24-4.406 0-8 10.523-8 24 0 12.484 3.594 23 8 23zm-35-1c13.215 0 22-10.414 22-24 0-12.574-8.785-23-22-23-13.204 0-22 10.426-22 23 0 13.586 8.796 24 22 24zm-1-35c5.795 0 9 5.834 9 12 0 5.999-3.205 12-9 12-5.789 0-9-6.001-9-12 0-6.166 3.211-12 9-12zm36-33a8 8 0 1 0 0 16c4.427 0 8-3.587 8-8 0-4.416-3.573-8-8-8z"/>
</svg>
